# xmcd
#
# Track frame offsets:
#	150
#	13782
#	30672
#	46962
#	57912
#	76422
#	94595
#	113787
#	131635
#	148007
#	165225
#
# Disc length: 2437 seconds
#
# Revision: 3
# Processed by: cddbd v1.5.2PL0 Copyright (c) Steve Scherf et al.
# Submitted via: dBpowerAMP V4.0
#
DISCID=8709830b
DTITLE=Count Basie Orchestra - Basie Meets Bond (1965)
DYEAR=2002
DGENRE=Jazz
TTITLE0=007
TTITLE1=The Golden Horn
TTITLE2=Girl Trouble
TTITLE3=Kingston Calypso
TTITLE4=Goldfinger
TTITLE5=Thunderball
TTITLE6=From Russia With Love
TTITLE7=Dr. No's Fantasy
TTITLE8=Underneath The Mango Tree
TTITLE9=The James Bond Theme
TTITLE10=Dr. No's Fantasy (first version)
EXTD=Count Basie and his Orchestra - Thunderball and Other Themes from the James Bond Movies
EXTT0=
EXTT1=
EXTT2=
EXTT3=
EXTT4=
EXTT5=
EXTT6=
EXTT7=
EXTT8=
EXTT9=
EXTT10=
PLAYORDER=
